<?xml version="1.0" standalone="no"?><svg xmlns:xlink="http://www.w3.org/1999/xlink" xmlns="http://www.w3.org/2000/svg" viewBox="0 0 2000 1142.857142857143" preserveAspectRatio="xMaxYMax slice"><g transform="scale(1.6349887594522787)"><rect x="0" y="0" width="1223.25" height="699" fill="#ffffff"/><rect x="0" y="0" width="87.375" height="87.375" fill="#ffffff"/><rect x="0" y="0" width="43.69" height="43.69" fill="#d1f1f1"/><polygon points="43.69,0 43.69,43.69 0,43.69" fill="#dbf4f4"/><rect x="43.69" y="0" width="43.69" height="43.69" fill="#a1c4b8"/><polygon points="43.69,0 87.38,0 43.69,43.69" fill="#a9c9be"/><rect x="0" y="43.69" width="43.69" height="43.69" fill="#fafefe"/><polygon points="0,43.69 43.69,43.69 43.69,87.38" fill="#c7eeee"/><rect x="43.69" y="43.69" width="43.69" height="43.69" fill="#a4c6ba"/><polygon points="43.69,43.69 87.38,87.38 43.69,87.38" fill="#f5fcfc"/><rect x="87.38" y="0" width="87.38" height="87.38" fill="#e3eeea"/><path d="M 87.38 0 A 87.38 87.38 0 0 1 174.76 87.38 L 87.38 87.38" fill="#f9fbfa"/><rect x="174.75" y="0" width="87.38" height="87.38" fill="#c1ecec"/><rect x="174.75" y="0" width="87.38" height="87.38" fill="#ddf4f5"/><rect x="262.13" y="0" width="87.38" height="87.38" fill="#dff5f5"/><polygon points="349.51,0 349.51,87.38 262.13,87.38" fill="#e5f7f7"/><rect x="349.5" y="0" width="87.38" height="87.38" fill="#fafdfe"/><rect x="349.5" y="0" width="87.38" height="87.38" fill="#d6f2f3"/><rect x="436.88" y="0" width="87.38" height="87.38" fill="#ebf9f9"/><path d="M 436.88 87.38 A 87.38 87.38 0 0 1  524.26 0 L 524.26 87.38" fill="#d2e3dd"/><rect x="524.25" y="0" width="87.375" height="87.375" fill="#ffffff"/><rect x="524.25" y="0" width="43.69" height="43.69" fill="#c4dad2"/><polygon points="567.94,0 567.94,43.69 524.25,43.69" fill="#e7f7f8"/><rect x="567.94" y="0" width="43.69" height="43.69" fill="#b8e9ea"/><polygon points="567.94,0 611.6300000000001,43.69 567.94,43.69" fill="#c9eeef"/><rect x="524.25" y="43.69" width="43.69" height="43.69" fill="#ebf9f9"/><polygon points="524.25,43.69 567.94,43.69 567.94,87.38" fill="#deeae6"/><rect x="567.94" y="43.69" width="43.69" height="43.69" fill="#b5d1c7"/><polygon points="567.94,43.69 611.6300000000001,43.69 567.94,87.38" fill="#feffff"/><rect x="611.625" y="0" width="87.375" height="87.375" fill="#ffffff"/><rect x="611.63" y="0" width="43.69" height="43.69" fill="#bdebeb"/><path d="M 611.63 43.69 A 43.69 43.69 0 0 1 655.3199999999999 0 L 655.3199999999999 10.9225 A 32.7675 32.7675 0 0 0 622.5525 43.69" fill="#90b9aa"/><rect x="655.31" y="0" width="43.69" height="43.69" fill="#f9fdfd"/><path d="M 655.31 0 A 43.69 43.69 0 0 1 699 43.69 L 688.0775 43.69 A 32.7675 32.7675 0 0 0 655.31 10.9225" fill="#d4f2f2"/><rect x="611.63" y="43.69" width="43.69" height="43.69" fill="#dae8e3"/><path d="M 611.63 43.69 A 43.69 43.69 0 0 0 655.3199999999999 87.38 L 655.3199999999999 76.4575 A 32.7675 32.7675 0 0 1 622.5525 43.69" fill="#e3f6f7"/><rect x="655.31" y="43.69" width="43.69" height="43.69" fill="#94bcad"/><path d="M 655.31 87.38 A 43.69 43.69 0 0 0 699 43.69 L 688.0775 43.69 A 32.7675 32.7675 0 0 1 655.31 76.4575" fill="#f7faf9"/><rect x="699" y="0" width="87.375" height="87.375" fill="#ffffff"/><rect x="699" y="0" width="43.69" height="43.69" fill="#e8f1ee"/><circle cx="720.845" cy="21.845" r="21.845" fill="#9bc0b3"/><rect x="742.69" y="0" width="43.69" height="43.69" fill="#dcf4f5"/><rect x="742.69" y="0" width="43.69" height="43.69" fill="#f8fdfd"/><rect x="699" y="43.69" width="43.69" height="43.69" fill="#e0f5f6"/><circle cx="720.845" cy="65.535" r="21.845" fill="#b5e8e9"/><rect x="742.69" y="43.69" width="43.69" height="43.69" fill="#9cc1b4"/><rect x="742.69" y="43.69" width="43.69" height="43.69" fill="#f1fbfb"/><rect x="786.375" y="0" width="87.375" height="87.375" fill="#ffffff"/><rect x="786.38" y="0" width="43.69" height="43.69" fill="#a5c7bb"/><path d="M 786.38 0 A 43.69 43.69 0 0 0 830.0699999999999 43.69 L 830.0699999999999 0" fill="#ccdfd9"/><rect x="830.06" y="0" width="43.69" height="43.69" fill="#beebec"/><path d="M 830.06 43.69 A 43.69 43.69 0 0 0 873.75 0 L 830.06 0" fill="#e2ede9"/><rect x="786.38" y="43.69" width="43.69" height="43.69" fill="#e6f7f8"/><path d="M 786.38 87.38 A 43.69 43.69 0 0 1  830.0699999999999 43.69 L 830.0699999999999 87.38" fill="#aacabf"/><rect x="830.06" y="43.69" width="43.69" height="43.69" fill="#b6e8e9"/><path d="M 830.06 43.69 A 43.69 43.69 0 0 1 873.75 87.38 L 830.06 87.38" fill="#effafa"/><rect x="873.75" y="0" width="87.375" height="87.375" fill="#ffffff"/><rect x="873.75" y="0" width="43.69" height="43.69" fill="#c4eded"/><path d="M 873.75 43.69 A 43.69 43.69 0 0 0 917.44 0 L 873.75 0" fill="#b0cec3"/><rect x="917.44" y="0" width="43.69" height="43.69" fill="#97beb0"/><path d="M 917.44 0 A 43.69 43.69 0 0 0 961.1300000000001 43.69 L 961.1300000000001 0" fill="#d6e5e0"/><rect x="873.75" y="43.69" width="43.69" height="43.69" fill="#fbfefe"/><path d="M 873.75 43.69 A 43.69 43.69 0 0 1 917.44 87.38 L 873.75 87.38" fill="#eaf2ef"/><rect x="917.44" y="43.69" width="43.69" height="43.69" fill="#eff5f3"/><path d="M 917.44 87.38 A 43.69 43.69 0 0 1  961.1300000000001 43.69 L 961.1300000000001 87.38" fill="#b3e7e8"/><rect x="961.13" y="0" width="87.38" height="87.38" fill="#c6dbd4"/><polygon points="961.13,0 1048.51,0 1048.51,87.38" fill="#caeeef"/><rect x="1048.5" y="0" width="87.375" height="87.375" fill="#ffffff"/><rect x="1048.5" y="0" width="43.69" height="43.69" fill="#bed6cd"/><polygon points="1092.19,0 1092.19,43.69 1048.5,43.69" fill="#e6efec"/><rect x="1092.19" y="0" width="43.69" height="43.69" fill="#e6efec"/><polygon points="1092.19,0 1135.88,43.69 1092.19,43.69" fill="#e3f6f7"/><rect x="1048.5" y="43.69" width="43.69" height="43.69" fill="#c1eced"/><polygon points="1048.5,43.69 1092.19,43.69 1092.19,87.38" fill="#a4c6ba"/><rect x="1092.19" y="43.69" width="43.69" height="43.69" fill="#a4c6ba"/><polygon points="1092.19,43.69 1135.88,43.69 1092.19,87.38" fill="#bfebec"/><rect x="1135.88" y="0" width="87.38" height="87.38" fill="#c3d9d1"/><rect x="1135.88" y="0" width="87.38" height="87.38" fill="#bceaeb"/><rect x="0" y="87.375" width="87.375" height="87.375" fill="#ffffff"/><rect x="0" y="87.38" width="43.69" height="43.69" fill="#e6efec"/><circle cx="21.845" cy="109.225" r="21.845" fill="#edf9fa"/><rect x="43.69" y="87.38" width="43.69" height="43.69" fill="#d7e6e0"/><rect x="43.69" y="87.38" width="43.69" height="43.69" fill="#cceff0"/><rect x="0" y="131.06" width="43.69" height="43.69" fill="#b0cec3"/><circle cx="21.845" cy="152.905" r="21.845" fill="#b1cec4"/><rect x="43.69" y="131.06" width="43.69" height="43.69" fill="#caded7"/><rect x="43.69" y="131.06" width="43.69" height="43.69" fill="#96bdaf"/><rect x="87.38" y="87.38" width="87.38" height="87.38" fill="#caded6"/><path d="M 87.38 174.76 A 87.38 87.38 0 0 1  174.76 87.38 L 174.76 174.76" fill="#ddf4f5"/><rect x="174.75" y="87.375" width="87.375" height="87.375" fill="#ffffff"/><rect x="174.75" y="87.38" width="43.69" height="43.69" fill="#c7dcd5"/><path d="M 174.75 87.38 A 43.69 43.69 0 0 0 218.44 131.07 L 218.44 87.38" fill="#b0cdc3"/><rect x="218.44" y="87.38" width="43.69" height="43.69" fill="#c9ddd6"/><path d="M 218.44 131.07 A 43.69 43.69 0 0 0 262.13 87.38 L 218.44 87.38" fill="#b8e9ea"/><rect x="174.75" y="131.06" width="43.69" height="43.69" fill="#f2f7f5"/><path d="M 174.75 174.75 A 43.69 43.69 0 0 1  218.44 131.06 L 218.44 174.75" fill="#fbfefe"/><rect x="218.44" y="131.06" width="43.69" height="43.69" fill="#b4e8e9"/><path d="M 218.44 131.06 A 43.69 43.69 0 0 1 262.13 174.75 L 218.44 174.75" fill="#9ac0b2"/><rect x="262.13" y="87.38" width="87.38" height="87.38" fill="#e5efeb"/><rect x="262.13" y="87.38" width="87.38" height="87.38" fill="#c4eced"/><rect x="349.5" y="87.38" width="87.38" height="87.38" fill="#a3c6ba"/><path d="M 349.5 87.38 A 87.38 87.38 0 0 0 436.88 174.76 L 436.88 87.38" fill="#bceaeb"/><rect x="436.88" y="87.38" width="87.38" height="87.38" fill="#d0f0f1"/><rect x="436.88" y="87.38" width="87.38" height="87.38" fill="#fcfefe"/><rect x="524.25" y="87.375" width="87.375" height="87.375" fill="#ffffff"/><rect x="524.25" y="87.38" width="43.69" height="43.69" fill="#e2f6f6"/><path d="M 524.25 131.07 A 43.69 43.69 0 0 0 567.94 87.38 L 524.25 87.38" fill="#dff5f6"/><rect x="567.94" y="87.38" width="43.69" height="43.69" fill="#e9f8f8"/><path d="M 567.94 87.38 A 43.69 43.69 0 0 0 611.6300000000001 131.07 L 611.6300000000001 87.38" fill="#e1ece8"/><rect x="524.25" y="131.06" width="43.69" height="43.69" fill="#eef4f2"/><path d="M 524.25 131.06 A 43.69 43.69 0 0 1 567.94 174.75 L 524.25 174.75" fill="#bae9ea"/><rect x="567.94" y="131.06" width="43.69" height="43.69" fill="#cde0d9"/><path d="M 567.94 174.75 A 43.69 43.69 0 0 1  611.6300000000001 131.06 L 611.6300000000001 174.75" fill="#c9eeef"/><rect x="611.63" y="87.38" width="87.38" height="87.38" fill="#dce9e4"/><path d="M 611.63 174.76 A 87.38 87.38 0 0 1  699.01 87.38 L 611.63 174.76 A 87.38 87.38 0 0 0 699.01 87.38" fill="#d8e6e1"/><rect x="699" y="87.38" width="87.38" height="87.38" fill="#c0d8cf"/><path d="M 699 87.38 A 87.38 87.38 0 0 1 786.38 174.76 L 699 174.76" fill="#9bc0b3"/><rect x="786.375" y="87.375" width="87.375" height="87.375" fill="#ffffff"/><rect x="786.38" y="87.38" width="43.69" height="43.69" fill="#c7edee"/><circle cx="808.225" cy="109.225" r="21.845" fill="#bfd7cf"/><rect x="830.06" y="87.38" width="43.69" height="43.69" fill="#a9c9be"/><rect x="830.06" y="87.38" width="43.69" height="43.69" fill="#cff0f1"/><rect x="786.38" y="131.06" width="43.69" height="43.69" fill="#d5f2f2"/><circle cx="808.225" cy="152.905" r="21.845" fill="#f6f9f8"/><rect x="830.06" y="131.06" width="43.69" height="43.69" fill="#feffff"/><rect x="830.06" y="131.06" width="43.69" height="43.69" fill="#e8f8f8"/><rect x="873.75" y="87.375" width="87.375" height="87.375" fill="#ffffff"/><rect x="873.75" y="87.38" width="43.69" height="43.69" fill="#d5e5df"/><polygon points="917.44,87.38 917.44,131.07 873.75,131.07" fill="#90b9ab"/><rect x="917.44" y="87.38" width="43.69" height="43.69" fill="#fefffe"/><polygon points="917.44,87.38 961.1300000000001,131.07 917.44,131.07" fill="#e6f7f8"/><rect x="873.75" y="131.06" width="43.69" height="43.69" fill="#b2cfc5"/><polygon points="873.75,131.06 917.44,131.06 873.75,174.75" fill="#e5efeb"/><rect x="917.44" y="131.06" width="43.69" height="43.69" fill="#afcdc3"/><polygon points="917.44,131.06 961.1300000000001,131.06 961.1300000000001,174.75" fill="#e1f6f6"/><rect x="961.13" y="87.38" width="87.38" height="87.38" fill="#96bdaf"/><polygon points="1048.51,87.38 1048.51,174.76 961.13,174.76" fill="#a4c6ba"/><rect x="1048.5" y="87.375" width="87.375" height="87.375" fill="#ffffff"/><rect x="1048.5" y="87.38" width="43.69" height="43.69" fill="#eaf2ef"/><circle cx="1070.345" cy="109.225" r="21.845" fill="#c8eeef"/><rect x="1092.19" y="87.38" width="43.69" height="43.69" fill="#b8d3c9"/><rect x="1092.19" y="87.38" width="43.69" height="43.69" fill="#c4eded"/><rect x="1048.5" y="131.06" width="43.69" height="43.69" fill="#c2d9d1"/><circle cx="1070.345" cy="152.905" r="21.845" fill="#d0f0f1"/><rect x="1092.19" y="131.06" width="43.69" height="43.69" fill="#e2ede9"/><rect x="1092.19" y="131.06" width="43.69" height="43.69" fill="#f1f6f4"/><rect x="1135.88" y="87.38" width="87.38" height="87.38" fill="#ccdfd8"/><path d="M 1135.88 87.38 A 87.38 87.38 0 0 1  1223.2600000000002 174.76 L 1135.88 87.38 A 87.38 87.38 0 0 0 1223.2600000000002 174.76" fill="#fcfdfc"/><rect x="0" y="174.75" width="87.38" height="87.38" fill="#def5f5"/><rect x="0" y="174.75" width="87.38" height="87.38" fill="#cef0f0"/><rect x="87.38" y="174.75" width="87.38" height="87.38" fill="#dbf4f4"/><rect x="87.38" y="174.75" width="87.38" height="87.38" fill="#d2e3dd"/><rect x="174.75" y="174.75" width="87.38" height="87.38" fill="#b2e7e8"/><polygon points="262.13,174.75 262.13,262.13 174.75,262.13" fill="#bad4cb"/><rect x="262.125" y="174.75" width="87.375" height="87.375" fill="#ffffff"/><rect x="262.13" y="174.75" width="43.69" height="43.69" fill="#b8e9ea"/><polygon points="305.82,174.75 305.82,218.44 262.13,218.44" fill="#dbf4f4"/><rect x="305.81" y="174.75" width="43.69" height="43.69" fill="#99bfb2"/><polygon points="305.81,174.75 349.5,218.44 305.81,218.44" fill="#feffff"/><rect x="262.13" y="218.44" width="43.69" height="43.69" fill="#eef5f2"/><polygon points="262.13,218.44 305.82,218.44 262.13,262.13" fill="#bbeaeb"/><rect x="305.81" y="218.44" width="43.69" height="43.69" fill="#c0d7cf"/><polygon points="305.81,218.44 349.5,218.44 349.5,262.13" fill="#e1f6f6"/><rect x="349.5" y="174.75" width="87.38" height="87.38" fill="#f7fdfd"/><rect x="349.5" y="174.75" width="87.38" height="87.38" fill="#c8eeef"/><rect x="436.875" y="174.75" width="87.375" height="87.375" fill="#ffffff"/><rect x="436.88" y="174.75" width="43.69" height="43.69" fill="#c0d8cf"/><polygon points="480.57,174.75 480.57,218.44 436.88,218.44" fill="#bdeaeb"/><rect x="480.56" y="174.75" width="43.69" height="43.69" fill="#f8fdfd"/><polygon points="480.56,174.75 524.25,174.75 480.56,218.44" fill="#f5f9f7"/><rect x="436.88" y="218.44" width="43.69" height="43.69" fill="#eefafa"/><polygon points="436.88,218.44 480.57,218.44 480.57,262.13" fill="#e9f1ee"/><rect x="480.56" y="218.44" width="43.69" height="43.69" fill="#a8c8bd"/><polygon points="480.56,218.44 524.25,262.13 480.56,262.13" fill="#cbefef"/><rect x="524.25" y="174.75" width="87.38" height="87.38" fill="#e9f1ee"/><polygon points="611.63,174.75 611.63,262.13 524.25,262.13" fill="#b9d3ca"/><rect x="611.625" y="174.75" width="87.375" height="87.375" fill="#ffffff"/><rect x="611.63" y="174.75" width="43.69" height="43.69" fill="#eff5f3"/><path d="M 611.63 218.44 A 43.69 43.69 0 0 1  655.3199999999999 174.75 L 655.3199999999999 218.44" fill="#d7e6e0"/><rect x="655.31" y="174.75" width="43.69" height="43.69" fill="#c5dbd3"/><path d="M 655.31 174.75 A 43.69 43.69 0 0 1 699 218.44 L 655.31 218.44" fill="#b0cec3"/><rect x="611.63" y="218.44" width="43.69" height="43.69" fill="#c2d9d1"/><path d="M 611.63 218.44 A 43.69 43.69 0 0 0 655.3199999999999 262.13 L 655.3199999999999 218.44" fill="#e6f7f8"/><rect x="655.31" y="218.44" width="43.69" height="43.69" fill="#90b9ab"/><path d="M 655.31 262.13 A 43.69 43.69 0 0 0 699 218.44 L 655.31 218.44" fill="#e5f7f7"/><rect x="699" y="174.75" width="87.38" height="87.38" fill="#a1c4b8"/><path d="M 699 174.75 A 87.38 87.38 0 0 1 786.38 262.13 L 699 262.13" fill="#c9eeef"/><rect x="786.38" y="174.75" width="87.38" height="87.38" fill="#b7e9ea"/><polygon points="786.38,174.75 873.76,174.75 786.38,262.13" fill="#dbe9e4"/><rect x="873.75" y="174.75" width="87.375" height="87.375" fill="#ffffff"/><rect x="873.75" y="174.75" width="43.69" height="43.69" fill="#d5e4df"/><path d="M 873.75 218.44 A 43.69 43.69 0 0 0 917.44 174.75 L 873.75 174.75" fill="#b8e9ea"/><rect x="917.44" y="174.75" width="43.69" height="43.69" fill="#fcfdfc"/><path d="M 917.44 174.75 A 43.69 43.69 0 0 0 961.1300000000001 218.44 L 961.1300000000001 174.75" fill="#b8d3c9"/><rect x="873.75" y="218.44" width="43.69" height="43.69" fill="#96bdaf"/><path d="M 873.75 218.44 A 43.69 43.69 0 0 1 917.44 262.13 L 873.75 262.13" fill="#d7e6e1"/><rect x="917.44" y="218.44" width="43.69" height="43.69" fill="#e6efec"/><path d="M 917.44 262.13 A 43.69 43.69 0 0 1  961.1300000000001 218.44 L 961.1300000000001 262.13" fill="#d6f2f3"/><rect x="961.13" y="174.75" width="87.38" height="87.38" fill="#b8d3c9"/><rect x="961.13" y="174.75" width="87.38" height="87.38" fill="#b7e8e9"/><rect x="1048.5" y="174.75" width="87.38" height="87.38" fill="#d8f3f3"/><rect x="1048.5" y="174.75" width="87.38" height="87.38" fill="#f5f8f7"/><rect x="1135.88" y="174.75" width="87.38" height="87.38" fill="#ebf2f0"/><rect x="1135.88" y="174.75" width="87.38" height="87.38" fill="#bbeaeb"/><rect x="0" y="262.13" width="87.38" height="87.38" fill="#a2c5b8"/><polygon points="87.38,262.13 87.38,349.51 0,349.51" fill="#c1d8d0"/><rect x="87.38" y="262.13" width="87.38" height="87.38" fill="#d1e2dc"/><polygon points="174.76,262.13 174.76,349.51 87.38,349.51" fill="#bbd4cb"/><rect x="174.75" y="262.13" width="87.38" height="87.38" fill="#fdfefe"/><rect x="174.75" y="262.13" width="87.38" height="87.38" fill="#d3e4de"/><rect x="262.13" y="262.13" width="87.38" height="87.38" fill="#adccc1"/><rect x="262.13" y="262.13" width="87.38" height="87.38" fill="#cbefef"/><rect x="349.5" y="262.13" width="87.38" height="87.38" fill="#a9c9be"/><rect x="349.5" y="262.13" width="87.38" height="87.38" fill="#dcf4f4"/><rect x="436.875" y="262.125" width="87.375" height="87.375" fill="#ffffff"/><rect x="436.88" y="262.13" width="43.69" height="43.69" fill="#f4f8f6"/><circle cx="458.725" cy="283.975" r="21.845" fill="#dff5f5"/><rect x="480.56" y="262.13" width="43.69" height="43.69" fill="#d0f0f1"/><rect x="480.56" y="262.13" width="43.69" height="43.69" fill="#baeaea"/><rect x="436.88" y="305.81" width="43.69" height="43.69" fill="#dbf4f4"/><circle cx="458.725" cy="327.655" r="21.845" fill="#bceaeb"/><rect x="480.56" y="305.81" width="43.69" height="43.69" fill="#a8c8bd"/><rect x="480.56" y="305.81" width="43.69" height="43.69" fill="#d5f2f2"/><rect x="524.25" y="262.13" width="87.38" height="87.38" fill="#ebf9f9"/><path d="M 524.25 349.51 A 87.38 87.38 0 0 1  611.63 262.13 L 611.63 349.51" fill="#d5e5df"/><rect x="611.63" y="262.13" width="87.38" height="87.38" fill="#bfebec"/><polygon points="611.63,262.13 699.01,262.13 699.01,349.51" fill="#c0ebec"/><rect x="699" y="262.13" width="87.38" height="87.38" fill="#cbefef"/><path d="M 699 262.13 A 87.38 87.38 0 0 1  786.38 349.51 L 699 262.13 A 87.38 87.38 0 0 0 786.38 349.51" fill="#ccdfd8"/><rect x="786.38" y="262.13" width="87.38" height="87.38" fill="#e0f5f6"/><path d="M 786.38 349.51 A 87.38 87.38 0 0 1  873.76 262.13 L 873.76 349.51" fill="#dfebe7"/><rect x="873.75" y="262.13" width="87.38" height="87.38" fill="#b3e7e8"/><path d="M 873.75 349.51 A 87.38 87.38 0 0 1  961.13 262.13 L 961.13 349.51" fill="#91baac"/><rect x="961.13" y="262.13" width="87.38" height="87.38" fill="#bad4ca"/><polygon points="961.13,262.13 1048.51,262.13 961.13,349.51" fill="#eff5f3"/><rect x="1048.5" y="262.13" width="87.38" height="87.38" fill="#bdeaeb"/><rect x="1048.5" y="262.13" width="87.38" height="87.38" fill="#afcdc2"/><rect x="1135.88" y="262.13" width="87.38" height="87.38" fill="#cceff0"/><path d="M 1135.88 262.13 A 87.38 87.38 0 0 1 1223.2600000000002 349.51 L 1135.88 349.51" fill="#c4dad2"/><rect x="0" y="349.5" width="87.38" height="87.38" fill="#f9fdfd"/><rect x="0" y="349.5" width="87.38" height="87.38" fill="#ecf9f9"/><rect x="87.38" y="349.5" width="87.38" height="87.38" fill="#c8eeef"/><rect x="87.38" y="349.5" width="87.38" height="87.38" fill="#b5e8e9"/><rect x="174.75" y="349.5" width="87.38" height="87.38" fill="#f1f6f4"/><rect x="174.75" y="349.5" width="87.38" height="87.38" fill="#c7eeee"/><rect x="262.125" y="349.5" width="87.375" height="87.375" fill="#ffffff"/><rect x="262.13" y="349.5" width="43.69" height="43.69" fill="#fdfefe"/><polygon points="305.82,349.5 305.82,393.19 262.13,393.19" fill="#b6e8e9"/><rect x="305.81" y="349.5" width="43.69" height="43.69" fill="#e7f7f8"/><polygon points="305.81,349.5 349.5,393.19 305.81,393.19" fill="#d4f2f2"/><rect x="262.13" y="393.19" width="43.69" height="43.69" fill="#e2ede9"/><polygon points="262.13,393.19 305.82,393.19 262.13,436.88" fill="#e6f7f7"/><rect x="305.81" y="393.19" width="43.69" height="43.69" fill="#e2f6f6"/><polygon points="305.81,393.19 349.5,393.19 349.5,436.88" fill="#f6f9f8"/><rect x="349.5" y="349.5" width="87.38" height="87.38" fill="#9ec3b6"/><path d="M 349.5 349.5 A 87.38 87.38 0 0 1  436.88 436.88 L 349.5 349.5 A 87.38 87.38 0 0 0 436.88 436.88" fill="#bfd7cf"/><rect x="436.88" y="349.5" width="87.38" height="87.38" fill="#ffffff"/><path d="M 436.88 436.88 A 87.38 87.38 0 0 1  524.26 349.5 L 524.26 436.88" fill="#adccc1"/><rect x="524.25" y="349.5" width="87.38" height="87.38" fill="#f9fdfd"/><polygon points="524.25,349.5 611.63,349.5 611.63,436.88" fill="#bdeaeb"/><rect x="611.63" y="349.5" width="87.38" height="87.38" fill="#b6d1c8"/><path d="M 611.63 349.5 A 87.38 87.38 0 0 1  699.01 436.88 L 611.63 349.5 A 87.38 87.38 0 0 0 699.01 436.88" fill="#effafa"/><rect x="699" y="349.5" width="87.38" height="87.38" fill="#b7e9ea"/><rect x="699" y="349.5" width="87.38" height="87.38" fill="#d4e4de"/><rect x="786.375" y="349.5" width="87.375" height="87.375" fill="#ffffff"/><rect x="786.38" y="349.5" width="43.69" height="43.69" fill="#ebf3f0"/><polygon points="830.0699999999999,349.5 830.0699999999999,393.19 786.38,393.19" fill="#bcd5cc"/><rect x="830.06" y="349.5" width="43.69" height="43.69" fill="#e0f5f6"/><polygon points="830.06,349.5 873.75,349.5 830.06,393.19" fill="#dbf4f4"/><rect x="786.38" y="393.19" width="43.69" height="43.69" fill="#b9e9ea"/><polygon points="786.38,393.19 830.0699999999999,393.19 830.0699999999999,436.88" fill="#a0c4b7"/><rect x="830.06" y="393.19" width="43.69" height="43.69" fill="#98bfb1"/><polygon points="830.06,393.19 873.75,436.88 830.06,436.88" fill="#f7faf9"/><rect x="873.75" y="349.5" width="87.38" height="87.38" fill="#fdfdfd"/><path d="M 873.75 436.88 A 87.38 87.38 0 0 1  961.13 349.5 L 873.75 436.88 A 87.38 87.38 0 0 0 961.13 349.5" fill="#c2d9d1"/><rect x="961.125" y="349.5" width="87.375" height="87.375" fill="#ffffff"/><rect x="961.13" y="349.5" width="43.69" height="43.69" fill="#eefafa"/><polygon points="1004.8199999999999,349.5 1004.8199999999999,393.19 961.13,393.19" fill="#bad4cb"/><rect x="1004.81" y="349.5" width="43.69" height="43.69" fill="#c2eced"/><polygon points="1004.81,349.5 1048.5,393.19 1004.81,393.19" fill="#b3cfc5"/><rect x="961.13" y="393.19" width="43.69" height="43.69" fill="#c2eced"/><polygon points="961.13,393.19 1004.8199999999999,393.19 961.13,436.88" fill="#eaf8f9"/><rect x="1004.81" y="393.19" width="43.69" height="43.69" fill="#effafa"/><polygon points="1004.81,393.19 1048.5,393.19 1048.5,436.88" fill="#e9f8f8"/><rect x="1048.5" y="349.5" width="87.38" height="87.38" fill="#f0f6f4"/><path d="M 1048.5 349.5 A 87.38 87.38 0 0 0 1135.88 436.88 L 1135.88 349.5" fill="#c3dad1"/><rect x="1135.88" y="349.5" width="87.38" height="87.38" fill="#a3c6ba"/><rect x="1135.88" y="349.5" width="87.38" height="87.38" fill="#9fc3b6"/><rect x="0" y="436.875" width="87.375" height="87.375" fill="#ffffff"/><rect x="0" y="436.88" width="43.69" height="43.69" fill="#e7f0ed"/><path d="M 0 480.57 A 43.69 43.69 0 0 0 43.69 436.88 L 0 436.88" fill="#a2c5b8"/><rect x="43.69" y="436.88" width="43.69" height="43.69" fill="#fafdfe"/><path d="M 43.69 436.88 A 43.69 43.69 0 0 0 87.38 480.57 L 87.38 436.88" fill="#bed7ce"/><rect x="0" y="480.56" width="43.69" height="43.69" fill="#bfd7ce"/><path d="M 0 480.56 A 43.69 43.69 0 0 1 43.69 524.25 L 0 524.25" fill="#cceff0"/><rect x="43.69" y="480.56" width="43.69" height="43.69" fill="#cee1da"/><path d="M 43.69 524.25 A 43.69 43.69 0 0 1  87.38 480.56 L 87.38 524.25" fill="#dbe9e4"/><rect x="87.375" y="436.875" width="87.375" height="87.375" fill="#ffffff"/><rect x="87.38" y="436.88" width="43.69" height="43.69" fill="#cdeff0"/><polygon points="131.07,436.88 131.07,480.57 87.38,480.57" fill="#fbfefe"/><rect x="131.06" y="436.88" width="43.69" height="43.69" fill="#b3e7e8"/><polygon points="131.06,436.88 174.75,436.88 131.06,480.57" fill="#e7f8f8"/><rect x="87.38" y="480.56" width="43.69" height="43.69" fill="#d8e6e1"/><polygon points="87.38,480.56 131.07,480.56 131.07,524.25" fill="#ebf2f0"/><rect x="131.06" y="480.56" width="43.69" height="43.69" fill="#b6e8e9"/><polygon points="131.06,480.56 174.75,524.25 131.06,524.25" fill="#eefafa"/><rect x="174.75" y="436.875" width="87.375" height="87.375" fill="#ffffff"/><rect x="174.75" y="436.88" width="43.69" height="43.69" fill="#a1c4b7"/><polygon points="218.44,436.88 218.44,480.57 174.75,480.57" fill="#9ec3b6"/><rect x="218.44" y="436.88" width="43.69" height="43.69" fill="#f2f7f5"/><polygon points="218.44,436.88 262.13,436.88 218.44,480.57" fill="#ecf9f9"/><rect x="174.75" y="480.56" width="43.69" height="43.69" fill="#99bfb2"/><polygon points="174.75,480.56 218.44,480.56 218.44,524.25" fill="#aacabf"/><rect x="218.44" y="480.56" width="43.69" height="43.69" fill="#d3f1f2"/><polygon points="218.44,480.56 262.13,524.25 218.44,524.25" fill="#f1f6f4"/><rect x="262.125" y="436.875" width="87.375" height="87.375" fill="#ffffff"/><rect x="262.13" y="436.88" width="43.69" height="43.69" fill="#cceff0"/><polygon points="305.82,436.88 305.82,480.57 262.13,480.57" fill="#cdf0f0"/><rect x="305.81" y="436.88" width="43.69" height="43.69" fill="#b9e9ea"/><polygon points="305.81,436.88 349.5,436.88 305.81,480.57" fill="#f5f9f8"/><rect x="262.13" y="480.56" width="43.69" height="43.69" fill="#d1f1f1"/><polygon points="262.13,480.56 305.82,480.56 305.82,524.25" fill="#c2eced"/><rect x="305.81" y="480.56" width="43.69" height="43.69" fill="#a5c7bb"/><polygon points="305.81,480.56 349.5,524.25 305.81,524.25" fill="#dbf4f4"/><rect x="349.5" y="436.875" width="87.375" height="87.375" fill="#ffffff"/><rect x="349.5" y="436.88" width="43.69" height="43.69" fill="#d1f1f1"/><path d="M 349.5 436.88 A 43.69 43.69 0 0 1 393.19 480.57 L 349.5 480.57" fill="#d5e5df"/><rect x="393.19" y="436.88" width="43.69" height="43.69" fill="#a8c9bd"/><path d="M 393.19 480.57 A 43.69 43.69 0 0 1  436.88 436.88 L 436.88 480.57" fill="#b6e8e9"/><rect x="349.5" y="480.56" width="43.69" height="43.69" fill="#a5c7bb"/><path d="M 349.5 524.25 A 43.69 43.69 0 0 0 393.19 480.56 L 349.5 480.56" fill="#a9c9bd"/><rect x="393.19" y="480.56" width="43.69" height="43.69" fill="#d1f1f1"/><path d="M 393.19 480.56 A 43.69 43.69 0 0 0 436.88 524.25 L 436.88 480.56" fill="#fbfefe"/><rect x="436.875" y="436.875" width="87.375" height="87.375" fill="#ffffff"/><rect x="436.88" y="436.88" width="43.69" height="43.69" fill="#9ac0b2"/><path d="M 436.88 480.57 A 43.69 43.69 0 0 1  480.57 436.88 L 480.57 480.57" fill="#92bbac"/><rect x="480.56" y="436.88" width="43.69" height="43.69" fill="#c9eeef"/><path d="M 480.56 436.88 A 43.69 43.69 0 0 1 524.25 480.57 L 480.56 480.57" fill="#b7e8e9"/><rect x="436.88" y="480.56" width="43.69" height="43.69" fill="#dae8e3"/><path d="M 436.88 480.56 A 43.69 43.69 0 0 0 480.57 524.25 L 480.57 480.56" fill="#b4e8e9"/><rect x="480.56" y="480.56" width="43.69" height="43.69" fill="#fbfdfc"/><path d="M 480.56 524.25 A 43.69 43.69 0 0 0 524.25 480.56 L 480.56 480.56" fill="#def5f5"/><rect x="524.25" y="436.875" width="87.375" height="87.375" fill="#ffffff"/><rect x="524.25" y="436.88" width="43.69" height="43.69" fill="#ddf4f5"/><path d="M 524.25 480.57 A 43.69 43.69 0 0 1  567.94 436.88 L 567.94 480.57" fill="#e8f8f8"/><rect x="567.94" y="436.88" width="43.69" height="43.69" fill="#effafa"/><path d="M 567.94 436.88 A 43.69 43.69 0 0 1 611.6300000000001 480.57 L 567.94 480.57" fill="#bdd6cd"/><rect x="524.25" y="480.56" width="43.69" height="43.69" fill="#e2f6f6"/><path d="M 524.25 480.56 A 43.69 43.69 0 0 0 567.94 524.25 L 567.94 480.56" fill="#97beb0"/><rect x="567.94" y="480.56" width="43.69" height="43.69" fill="#eaf8f9"/><path d="M 567.94 524.25 A 43.69 43.69 0 0 0 611.6300000000001 480.56 L 567.94 480.56" fill="#fafdfe"/><rect x="611.63" y="436.88" width="87.38" height="87.38" fill="#b9e9ea"/><rect x="611.63" y="436.88" width="87.38" height="87.38" fill="#cfe1da"/><rect x="699" y="436.88" width="87.38" height="87.38" fill="#f7faf9"/><rect x="699" y="436.88" width="87.38" height="87.38" fill="#9ec2b6"/><rect x="786.375" y="436.875" width="87.375" height="87.375" fill="#ffffff"/><rect x="786.38" y="436.88" width="43.69" height="43.69" fill="#f5f9f7"/><polygon points="830.0699999999999,436.88 830.0699999999999,480.57 786.38,480.57" fill="#cdeff0"/><rect x="830.06" y="436.88" width="43.69" height="43.69" fill="#c7edee"/><polygon points="830.06,436.88 873.75,480.57 830.06,480.57" fill="#a6c7bb"/><rect x="786.38" y="480.56" width="43.69" height="43.69" fill="#d5f2f2"/><polygon points="786.38,480.56 830.0699999999999,480.56 786.38,524.25" fill="#e4eeeb"/><rect x="830.06" y="480.56" width="43.69" height="43.69" fill="#c7dcd5"/><polygon points="830.06,480.56 873.75,480.56 873.75,524.25" fill="#ecf3f1"/><rect x="873.75" y="436.875" width="87.375" height="87.375" fill="#ffffff"/><rect x="873.75" y="436.88" width="43.69" height="43.69" fill="#bfebec"/><polygon points="917.44,436.88 917.44,480.57 873.75,480.57" fill="#f9fcfb"/><rect x="917.44" y="436.88" width="43.69" height="43.69" fill="#d0e2db"/><polygon points="917.44,436.88 961.1300000000001,480.57 917.44,480.57" fill="#c0ebec"/><rect x="873.75" y="480.56" width="43.69" height="43.69" fill="#bbeaeb"/><polygon points="873.75,480.56 917.44,480.56 917.44,524.25" fill="#c3d9d1"/><rect x="917.44" y="480.56" width="43.69" height="43.69" fill="#caded7"/><polygon points="917.44,480.56 961.1300000000001,480.56 917.44,524.25" fill="#d4e4de"/><rect x="961.125" y="436.875" width="87.375" height="87.375" fill="#ffffff"/><rect x="961.13" y="436.88" width="43.69" height="43.69" fill="#cfe1da"/><path d="M 961.13 480.57 A 43.69 43.69 0 0 1  1004.8199999999999 436.88 L 1004.8199999999999 480.57" fill="#a5c6ba"/><rect x="1004.81" y="436.88" width="43.69" height="43.69" fill="#c0d8cf"/><path d="M 1004.81 436.88 A 43.69 43.69 0 0 1 1048.5 480.57 L 1004.81 480.57" fill="#95bcae"/><rect x="961.13" y="480.56" width="43.69" height="43.69" fill="#bdeaeb"/><path d="M 961.13 480.56 A 43.69 43.69 0 0 0 1004.8199999999999 524.25 L 1004.8199999999999 480.56" fill="#f1f6f4"/><rect x="1004.81" y="480.56" width="43.69" height="43.69" fill="#d4f2f2"/><path d="M 1004.81 524.25 A 43.69 43.69 0 0 0 1048.5 480.56 L 1004.81 480.56" fill="#e0ebe7"/><rect x="1048.5" y="436.88" width="87.38" height="87.38" fill="#f5f9f7"/><path d="M 1048.5 524.26 A 87.38 87.38 0 0 1  1135.88 436.88 L 1135.88 524.26" fill="#b3e7e8"/><rect x="1135.875" y="436.875" width="87.375" height="87.375" fill="#ffffff"/><rect x="1135.88" y="436.88" width="43.69" height="43.69" fill="#cfe1da"/><polygon points="1179.5700000000002,436.88 1179.5700000000002,480.57 1135.88,480.57" fill="#f0fafb"/><rect x="1179.56" y="436.88" width="43.69" height="43.69" fill="#adccc1"/><polygon points="1179.56,436.88 1223.25,436.88 1179.56,480.57" fill="#daf3f4"/><rect x="1135.88" y="480.56" width="43.69" height="43.69" fill="#90baab"/><polygon points="1135.88,480.56 1179.5700000000002,480.56 1179.5700000000002,524.25" fill="#eef4f2"/><rect x="1179.56" y="480.56" width="43.69" height="43.69" fill="#b6e8e9"/><polygon points="1179.56,480.56 1223.25,524.25 1179.56,524.25" fill="#bfebec"/><rect x="0" y="524.25" width="87.38" height="87.38" fill="#9bc1b3"/><path d="M 0 524.25 A 87.38 87.38 0 0 0 87.38 611.63 L 87.38 524.25" fill="#b0cec3"/><rect x="87.38" y="524.25" width="87.38" height="87.38" fill="#f7fdfd"/><rect x="87.38" y="524.25" width="87.38" height="87.38" fill="#d9f3f4"/><rect x="174.75" y="524.25" width="87.38" height="87.38" fill="#b9e9ea"/><path d="M 174.75 611.63 A 87.38 87.38 0 0 0 262.13 524.25 L 174.75 524.25" fill="#bceaeb"/><rect x="262.125" y="524.25" width="87.375" height="87.375" fill="#ffffff"/><rect x="262.13" y="524.25" width="43.69" height="43.69" fill="#ffffff"/><polygon points="305.82,524.25 305.82,567.94 262.13,567.94" fill="#d5f2f2"/><rect x="305.81" y="524.25" width="43.69" height="43.69" fill="#f9fdfd"/><polygon points="305.81,524.25 349.5,567.94 305.81,567.94" fill="#c0d8cf"/><rect x="262.13" y="567.94" width="43.69" height="43.69" fill="#bad4cb"/><polygon points="262.13,567.94 305.82,567.94 262.13,611.6300000000001" fill="#c6edee"/><rect x="305.81" y="567.94" width="43.69" height="43.69" fill="#ebf3f0"/><polygon points="305.81,567.94 349.5,567.94 349.5,611.6300000000001" fill="#d0f0f1"/><rect x="349.5" y="524.25" width="87.38" height="87.38" fill="#97beb0"/><rect x="349.5" y="524.25" width="87.38" height="87.38" fill="#a9c9be"/><rect x="436.88" y="524.25" width="87.38" height="87.38" fill="#ddf4f5"/><path d="M 436.88 524.25 A 87.38 87.38 0 0 1 524.26 611.63 L 436.88 611.63" fill="#c6edee"/><rect x="524.25" y="524.25" width="87.375" height="87.375" fill="#ffffff"/><rect x="524.25" y="524.25" width="43.69" height="43.69" fill="#a8c9bd"/><path d="M 524.25 567.94 A 43.69 43.69 0 0 1  567.94 524.25 L 567.94 567.94" fill="#c5edee"/><rect x="567.94" y="524.25" width="43.69" height="43.69" fill="#c0d7cf"/><path d="M 567.94 524.25 A 43.69 43.69 0 0 1 611.6300000000001 567.94 L 567.94 567.94" fill="#99bfb1"/><rect x="524.25" y="567.94" width="43.69" height="43.69" fill="#c3eced"/><path d="M 524.25 567.94 A 43.69 43.69 0 0 0 567.94 611.6300000000001 L 567.94 567.94" fill="#b9e9ea"/><rect x="567.94" y="567.94" width="43.69" height="43.69" fill="#c2d9d1"/><path d="M 567.94 611.6300000000001 A 43.69 43.69 0 0 0 611.6300000000001 567.94 L 567.94 567.94" fill="#bbeaeb"/><rect x="611.625" y="524.25" width="87.375" height="87.375" fill="#ffffff"/><rect x="611.63" y="524.25" width="43.69" height="43.69" fill="#cef0f0"/><path d="M 611.63 567.94 A 43.69 43.69 0 0 0 655.3199999999999 524.25 L 611.63 524.25" fill="#b8e9ea"/><rect x="655.31" y="524.25" width="43.69" height="43.69" fill="#d5f2f2"/><path d="M 655.31 524.25 A 43.69 43.69 0 0 0 699 567.94 L 699 524.25" fill="#e7f7f8"/><rect x="611.63" y="567.94" width="43.69" height="43.69" fill="#c2eced"/><path d="M 611.63 567.94 A 43.69 43.69 0 0 1 655.3199999999999 611.6300000000001 L 611.63 611.6300000000001" fill="#baeaea"/><rect x="655.31" y="567.94" width="43.69" height="43.69" fill="#c7dcd5"/><path d="M 655.31 611.6300000000001 A 43.69 43.69 0 0 1  699 567.94 L 699 611.6300000000001" fill="#d0f0f1"/><rect x="699" y="524.25" width="87.375" height="87.375" fill="#ffffff"/><rect x="699" y="524.25" width="43.69" height="43.69" fill="#a8c9bd"/><path d="M 699 524.25 A 43.69 43.69 0 0 0 742.69 567.94 L 742.69 524.25" fill="#b9e9ea"/><rect x="742.69" y="524.25" width="43.69" height="43.69" fill="#cef0f0"/><path d="M 742.69 567.94 A 43.69 43.69 0 0 0 786.3800000000001 524.25 L 742.69 524.25" fill="#ecf3f0"/><rect x="699" y="567.94" width="43.69" height="43.69" fill="#e5efeb"/><path d="M 699 611.6300000000001 A 43.69 43.69 0 0 1  742.69 567.94 L 742.69 611.6300000000001" fill="#c8ddd5"/><rect x="742.69" y="567.94" width="43.69" height="43.69" fill="#ddf4f5"/><path d="M 742.69 567.94 A 43.69 43.69 0 0 1 786.3800000000001 611.6300000000001 L 742.69 611.6300000000001" fill="#c2eced"/><rect x="786.375" y="524.25" width="87.375" height="87.375" fill="#ffffff"/><rect x="786.38" y="524.25" width="43.69" height="43.69" fill="#c5dbd3"/><path d="M 786.38 567.94 A 43.69 43.69 0 0 1 830.0699999999999 524.25 L 830.0699999999999 535.1725 A 32.7675 32.7675 0 0 0 797.3025 567.94" fill="#93bbad"/><rect x="830.06" y="524.25" width="43.69" height="43.69" fill="#c9ddd6"/><path d="M 830.06 524.25 A 43.69 43.69 0 0 1 873.75 567.94 L 862.8275 567.94 A 32.7675 32.7675 0 0 0 830.06 535.1725" fill="#c2d9d0"/><rect x="786.38" y="567.94" width="43.69" height="43.69" fill="#b6e8e9"/><path d="M 786.38 567.94 A 43.69 43.69 0 0 0 830.0699999999999 611.6300000000001 L 830.0699999999999 600.7075000000001 A 32.7675 32.7675 0 0 1 797.3025 567.94" fill="#fdfefe"/><rect x="830.06" y="567.94" width="43.69" height="43.69" fill="#94bcae"/><path d="M 830.06 611.6300000000001 A 43.69 43.69 0 0 0 873.75 567.94 L 862.8275 567.94 A 32.7675 32.7675 0 0 1 830.06 600.7075000000001" fill="#d4f2f2"/><rect x="873.75" y="524.25" width="87.38" height="87.38" fill="#d5e5df"/><rect x="873.75" y="524.25" width="87.38" height="87.38" fill="#d7e6e1"/><rect x="961.13" y="524.25" width="87.38" height="87.38" fill="#d9e7e2"/><polygon points="1048.51,524.25 1048.51,611.63 961.13,611.63" fill="#fafdfd"/><rect x="1048.5" y="524.25" width="87.375" height="87.375" fill="#ffffff"/><rect x="1048.5" y="524.25" width="43.69" height="43.69" fill="#d4f2f2"/><circle cx="1070.345" cy="546.095" r="21.845" fill="#d7e6e0"/><rect x="1092.19" y="524.25" width="43.69" height="43.69" fill="#9bc0b3"/><rect x="1092.19" y="524.25" width="43.69" height="43.69" fill="#e6f7f8"/><rect x="1048.5" y="567.94" width="43.69" height="43.69" fill="#bdd6cd"/><circle cx="1070.345" cy="589.7850000000001" r="21.845" fill="#d7f2f3"/><rect x="1092.19" y="567.94" width="43.69" height="43.69" fill="#dcf4f4"/><rect x="1092.19" y="567.94" width="43.69" height="43.69" fill="#e6f7f8"/><rect x="1135.88" y="524.25" width="87.38" height="87.38" fill="#9ac0b3"/><rect x="1135.88" y="524.25" width="87.38" height="87.38" fill="#98bfb1"/><rect x="0" y="611.63" width="87.38" height="87.38" fill="#a3c5b9"/><rect x="0" y="611.63" width="87.38" height="87.38" fill="#dfebe6"/><rect x="87.38" y="611.63" width="87.38" height="87.38" fill="#c3eced"/><path d="M 87.38 699.01 A 87.38 87.38 0 0 0 174.76 611.63 L 87.38 611.63" fill="#a2c5b9"/><rect x="174.75" y="611.625" width="87.375" height="87.375" fill="#ffffff"/><rect x="174.75" y="611.63" width="43.69" height="43.69" fill="#cceff0"/><path d="M 174.75 655.3199999999999 A 43.69 43.69 0 0 1 218.44 611.63 L 218.44 622.5525 A 32.7675 32.7675 0 0 0 185.6725 655.3199999999999" fill="#c7dcd5"/><rect x="218.44" y="611.63" width="43.69" height="43.69" fill="#d1e2dc"/><path d="M 218.44 611.63 A 43.69 43.69 0 0 1 262.13 655.3199999999999 L 251.20749999999998 655.3199999999999 A 32.7675 32.7675 0 0 0 218.44 622.5525" fill="#dbf4f4"/><rect x="174.75" y="655.31" width="43.69" height="43.69" fill="#c1ecec"/><path d="M 174.75 655.31 A 43.69 43.69 0 0 0 218.44 699 L 218.44 688.0775 A 32.7675 32.7675 0 0 1 185.6725 655.31" fill="#fcfefe"/><rect x="218.44" y="655.31" width="43.69" height="43.69" fill="#bbd4cb"/><path d="M 218.44 699 A 43.69 43.69 0 0 0 262.13 655.31 L 251.20749999999998 655.31 A 32.7675 32.7675 0 0 1 218.44 688.0775" fill="#f8faf9"/><rect x="262.13" y="611.63" width="87.38" height="87.38" fill="#e0ece7"/><polygon points="262.13,611.63 349.51,699.01 262.13,699.01" fill="#a7c8bc"/><rect x="349.5" y="611.63" width="87.38" height="87.38" fill="#eaf8f9"/><rect x="349.5" y="611.63" width="87.38" height="87.38" fill="#c2eced"/><rect x="436.88" y="611.63" width="87.38" height="87.38" fill="#cceff0"/><polygon points="436.88,611.63 524.26,611.63 436.88,699.01" fill="#d1f1f1"/><rect x="524.25" y="611.625" width="87.375" height="87.375" fill="#ffffff"/><rect x="524.25" y="611.63" width="43.69" height="43.69" fill="#eaf9f9"/><path d="M 524.25 611.63 A 43.69 43.69 0 0 1 567.94 655.3199999999999 L 524.25 655.3199999999999" fill="#d8f3f3"/><rect x="567.94" y="611.63" width="43.69" height="43.69" fill="#dce9e4"/><path d="M 567.94 655.3199999999999 A 43.69 43.69 0 0 1  611.6300000000001 611.63 L 611.6300000000001 655.3199999999999" fill="#bceaeb"/><rect x="524.25" y="655.31" width="43.69" height="43.69" fill="#c2eced"/><path d="M 524.25 699 A 43.69 43.69 0 0 0 567.94 655.31 L 524.25 655.31" fill="#b9e9ea"/><rect x="567.94" y="655.31" width="43.69" height="43.69" fill="#f2fbfb"/><path d="M 567.94 655.31 A 43.69 43.69 0 0 0 611.6300000000001 699 L 611.6300000000001 655.31" fill="#d6f2f3"/><rect x="611.625" y="611.625" width="87.375" height="87.375" fill="#ffffff"/><rect x="611.63" y="611.63" width="43.69" height="43.69" fill="#accbc0"/><path d="M 611.63 655.3199999999999 A 43.69 43.69 0 0 1  655.3199999999999 611.63 L 655.3199999999999 655.3199999999999" fill="#d4f2f2"/><rect x="655.31" y="611.63" width="43.69" height="43.69" fill="#beebeb"/><path d="M 655.31 611.63 A 43.69 43.69 0 0 1 699 655.3199999999999 L 655.31 655.3199999999999" fill="#cde0d9"/><rect x="611.63" y="655.31" width="43.69" height="43.69" fill="#a0c3b7"/><path d="M 611.63 655.31 A 43.69 43.69 0 0 0 655.3199999999999 699 L 655.3199999999999 655.31" fill="#ebf2f0"/><rect x="655.31" y="655.31" width="43.69" height="43.69" fill="#f0fafa"/><path d="M 655.31 699 A 43.69 43.69 0 0 0 699 655.31 L 655.31 655.31" fill="#b5e8e9"/><rect x="699" y="611.63" width="87.38" height="87.38" fill="#b3e7e8"/><path d="M 699 611.63 A 87.38 87.38 0 0 1  786.38 699.01 L 699 611.63 A 87.38 87.38 0 0 0 786.38 699.01" fill="#b5e8e9"/><rect x="786.38" y="611.63" width="87.38" height="87.38" fill="#b4d0c6"/><polygon points="786.38,611.63 873.76,699.01 786.38,699.01" fill="#cceff0"/><rect x="873.75" y="611.625" width="87.375" height="87.375" fill="#ffffff"/><rect x="873.75" y="611.63" width="43.69" height="43.69" fill="#eaf2ef"/><polygon points="917.44,611.63 917.44,655.3199999999999 873.75,655.3199999999999" fill="#bdd6cd"/><rect x="917.44" y="611.63" width="43.69" height="43.69" fill="#daf4f4"/><polygon points="917.44,611.63 961.1300000000001,655.3199999999999 917.44,655.3199999999999" fill="#d3f1f2"/><rect x="873.75" y="655.31" width="43.69" height="43.69" fill="#fafefe"/><polygon points="873.75,655.31 917.44,655.31 873.75,699" fill="#ebf9f9"/><rect x="917.44" y="655.31" width="43.69" height="43.69" fill="#e4eeea"/><polygon points="917.44,655.31 961.1300000000001,655.31 961.1300000000001,699" fill="#cfe1db"/><rect x="961.13" y="611.63" width="87.38" height="87.38" fill="#a4c6ba"/><path d="M 961.13 699.01 A 87.38 87.38 0 0 1  1048.51 611.63 L 1048.51 699.01" fill="#eaf2ef"/><rect x="1048.5" y="611.63" width="87.38" height="87.38" fill="#e7f8f8"/><polygon points="1048.5,611.63 1135.88,611.63 1048.5,699.01" fill="#96bdaf"/><rect x="1135.88" y="611.63" width="87.38" height="87.38" fill="#e4f7f7"/><path d="M 1135.88 611.63 A 87.38 87.38 0 0 0 1223.2600000000002 699.01 L 1223.2600000000002 611.63" fill="#d9e7e2"/></g></svg>